<?xml version="1.0" standalone="no"?>
<!DOCTYPE svg PUBLIC "-//W3C//DTD SVG 20010904//EN"
 "http://www.w3.org/TR/2001/REC-SVG-20010904/DTD/svg10.dtd">
<svg version="1.0" xmlns="http://www.w3.org/2000/svg"
 width="500.000000pt" height="500.000000pt" viewBox="0 0 500.000000 500.000000"
 preserveAspectRatio="xMidYMid meet">
<metadata>
Created by potrace 1.14, written by Peter Selinger 2001-2017
</metadata>
<g transform="translate(0.000000,500.000000) scale(0.100000,-0.100000)"
fill="#000000" stroke="none">
<path d="M0 2500 l0 -2500 2500 0 2500 0 0 2500 0 2500 -2500 0 -2500 0 0
-2500z m1491 1641 l29 -29 0 -892 c0 -567 4 -926 11 -987 13 -121 40 -194 90
-244 59 -59 112 -70 313 -67 l167 3 208 515 c114 283 218 534 230 558 33 65
83 115 148 148 51 25 69 29 143 29 79 0 90 -3 150 -36 42 -23 78 -52 100 -82
25 -33 140 -304 415 -983 209 -515 386 -955 393 -976 12 -34 12 -42 -2 -63
-16 -25 -17 -25 -184 -25 -131 0 -172 3 -188 15 -15 10 -122 267 -350 835
-180 451 -331 820 -334 820 -6 0 -300 -738 -300 -752 0 -4 103 -8 230 -10 298
-4 274 16 278 -233 3 -152 1 -189 -13 -214 -8 -17 -17 -32 -18 -33 -1 -1 -154
-5 -340 -8 l-339 -5 -78 -195 c-43 -107 -86 -200 -96 -207 -13 -9 -65 -13
-190 -13 -188 0 -198 3 -196 58 0 16 28 98 62 183 34 84 64 160 67 167 4 9
-18 12 -88 12 -239 0 -418 65 -546 197 -82 84 -126 165 -167 305 -58 199 -59
225 -63 1203 -3 495 -1 920 2 944 4 26 16 53 30 67 24 24 28 24 210 24 l187 0
29 -29z"/>
</g>
</svg>
